<?xml version="1.0" standalone="no"?>
<!DOCTYPE svg PUBLIC "-//W3C//DTD SVG 20010904//EN"
 "http://www.w3.org/TR/2001/REC-SVG-20010904/DTD/svg10.dtd">
<svg version="1.0" xmlns="http://www.w3.org/2000/svg"
 width="1280.000000pt" height="1274.000000pt" viewBox="0 0 1280.000000 1274.000000"
 preserveAspectRatio="xMidYMid meet">
<metadata>
Created by potrace 1.15, written by Peter Selinger 2001-2017
</metadata>
<g transform="translate(0.000000,1274.000000) scale(0.100000,-0.100000)"
fill="#000000" stroke="none">
<path d="M1240 12732 c0 -5 19 -19 43 -32 60 -34 128 -33 190 3 26 15 47 30
47 32 0 3 -63 5 -140 5 -77 0 -140 -4 -140 -8z"/>
<path d="M1804 12708 c-40 -77 -9 -195 64 -240 74 -46 174 -38 232 17 60 57
77 168 36 230 -16 25 -17 25 -166 25 l-149 0 -17 -32z"/>
<path d="M2454 12729 c-35 -57 -19 -153 35 -209 56 -59 134 -74 206 -41 95 44
142 151 103 236 l-11 25 -163 0 c-109 0 -165 -4 -170 -11z"/>
<path d="M3019 12721 c17 -31 77 -78 116 -91 73 -24 177 15 210 80 l16 30
-176 0 c-168 0 -175 -1 -166 -19z"/>
<path d="M4480 12731 c0 -16 51 -71 79 -86 76 -39 163 -25 223 35 21 21 38 43
38 49 0 8 -51 11 -170 11 -97 0 -170 -4 -170 -9z"/>
<path d="M6135 12715 c55 -45 138 -50 212 -12 62 32 49 37 -99 37 l-143 -1 30
-24z"/>
<path d="M6677 12705 c-19 -41 -22 -126 -6 -158 35 -68 101 -110 174 -110 60
0 101 19 143 67 48 55 56 153 18 211 -16 25 -18 25 -164 25 l-148 0 -17 -35z"/>
<path d="M7320 12721 c-17 -33 -12 -118 10 -161 48 -94 178 -126 267 -66 69
46 102 145 73 220 l-10 26 -164 0 c-153 0 -166 -1 -176 -19z"/>
<path d="M7890 12731 c0 -16 51 -71 79 -86 76 -39 163 -25 223 35 21 21 38 43
38 49 0 8 -51 11 -170 11 -97 0 -170 -4 -170 -9z"/>
<path d="M9350 12734 c0 -15 44 -65 73 -82 44 -28 96 -36 146 -22 42 11 104
57 122 91 9 18 2 19 -166 19 -96 0 -175 -3 -175 -6z"/>
<path d="M10995 12720 c10 -11 42 -28 72 -37 50 -16 56 -16 106 0 30 9 62 26
72 37 18 20 17 20 -125 20 -142 0 -143 0 -125 -20z"/>
<path d="M11545 12704 c-69 -145 61 -300 216 -260 90 24 144 100 137 192 -3
29 -12 64 -21 78 l-17 26 -149 0 -149 0 -17 -36z"/>
<path d="M12190 12720 c-6 -12 -11 -42 -12 -69 0 -96 68 -174 165 -187 60 -9
141 29 176 81 28 41 39 124 22 168 l-11 27 -164 0 c-156 0 -166 -1 -176 -20z"/>
<path d="M12770 12710 c12 -16 23 -30 26 -30 2 0 4 14 4 30 0 26 -4 30 -26 30
l-25 0 21 -30z"/>
<path d="M3735 12693 c-48 -25 -73 -53 -91 -99 -34 -90 7 -197 89 -235 131
-59 270 26 270 166 0 77 -48 149 -116 174 -41 16 -117 13 -152 -6z"/>
<path d="M8603 12690 c-22 -12 -54 -40 -70 -62 -23 -35 -28 -51 -28 -103 0
-52 5 -68 29 -103 57 -83 178 -107 261 -51 41 28 85 108 85 154 0 46 -44 126
-86 154 -51 35 -134 40 -191 11z"/>
<path d="M4265 12561 c-123 -57 -146 -214 -45 -305 117 -106 311 -21 310 136
0 48 -27 114 -56 140 -54 48 -142 60 -209 29z"/>
<path d="M9140 12564 c-45 -20 -68 -41 -91 -86 -58 -115 18 -255 145 -266 71
-6 117 11 160 58 38 43 51 88 43 156 -12 114 -147 186 -257 138z"/>
<path d="M1415 12515 c-5 -2 -22 -6 -37 -9 -37 -8 -98 -63 -114 -103 -64 -153
86 -308 241 -249 116 45 157 185 84 288 -31 43 -134 86 -174 73z"/>
<path d="M3081 12504 c-190 -51 -345 -217 -387 -413 -17 -84 -17 -139 1 -224
37 -177 178 -337 350 -398 83 -29 220 -36 309 -15 192 45 351 201 401 393 35
134 8 309 -65 423 -70 109 -197 202 -321 235 -69 19 -218 18 -288 -1z"/>
<path d="M6266 12509 c-79 -18 -146 -101 -146 -180 0 -42 29 -107 61 -136 97
-89 245 -58 300 62 64 139 -63 288 -215 254z"/>
<path d="M7943 12501 c-82 -24 -163 -74 -232 -142 -175 -174 -206 -460 -73
-665 188 -288 577 -341 827 -112 73 66 129 152 156 237 26 85 28 223 4 307
-47 166 -178 306 -340 366 -84 30 -255 35 -342 9z"/>
<path d="M11138 12510 c-77 -14 -147 -99 -148 -178 -1 -108 98 -199 206 -190
169 14 234 222 104 332 -42 34 -101 48 -162 36z"/>
<path d="M12721 12464 c-156 -78 -269 -238 -293 -415 -26 -198 67 -402 237
-519 45 -31 123 -66 131 -58 2 3 3 235 2 517 l-3 512 -74 -37z"/>
<path d="M2328 12321 c-82 -26 -129 -84 -136 -166 -6 -75 24 -136 85 -171 67
-40 117 -42 182 -7 163 86 119 324 -64 347 -22 3 -52 1 -67 -3z"/>
<path d="M7186 12315 c-136 -48 -170 -218 -63 -312 157 -138 383 38 288 224
-22 45 -57 73 -110 91 -43 15 -67 14 -115 -3z"/>
<path d="M12056 12316 c-49 -19 -102 -70 -117 -114 -16 -49 -6 -125 22 -167
35 -52 116 -90 176 -81 98 13 163 88 163 187 0 128 -126 218 -244 175z"/>
<path d="M3965 12174 c-72 -37 -105 -91 -105 -171 0 -161 190 -242 314 -134
31 27 56 88 56 136 0 48 -25 109 -56 136 -56 49 -150 64 -209 33z"/>
<path d="M8835 12174 c-69 -38 -105 -96 -105 -169 0 -113 87 -191 202 -183 99
7 168 82 168 183 0 62 -23 109 -73 149 -31 25 -48 31 -100 33 -43 2 -71 -2
-92 -13z"/>
<path d="M1790 12148 c-115 -59 -144 -192 -63 -289 55 -65 151 -82 230 -41
139 72 127 275 -19 336 -52 22 -96 20 -148 -6z"/>
<path d="M6665 12151 c-104 -47 -144 -172 -85 -268 53 -88 179 -115 263 -57
49 34 87 102 87 154 0 19 -9 53 -19 75 -45 98 -151 139 -246 96z"/>
<path d="M11535 12151 c-48 -22 -79 -54 -100 -103 -36 -87 3 -190 90 -235 41
-22 122 -21 169 2 21 10 51 36 66 57 111 153 -54 358 -225 279z"/>
<path d="M880 12059 c-80 -15 -203 -84 -269 -150 -70 -69 -137 -193 -147 -270
-4 -27 -10 -49 -14 -49 -4 0 -10 22 -14 49 -10 78 -76 198 -148 270 -63 63
-184 132 -256 146 l-32 7 0 -536 0 -536 27 6 c138 33 276 135 346 255 31 53
67 152 67 186 0 42 17 24 24 -26 17 -129 153 -304 286 -369 71 -35 179 -62
250 -62 237 0 458 170 526 405 19 69 22 195 5 268 -32 137 -151 289 -278 355
-104 55 -251 75 -373 51z"/>
<path d="M4690 12064 c-290 -56 -489 -322 -452 -601 29 -219 166 -382 381
-455 84 -28 218 -30 306 -4 198 59 349 219 388 413 l13 62 11 -61 c36 -191
191 -356 388 -414 76 -22 221 -23 291 -2 201 62 348 218 389 415 18 86 18 130
0 218 -45 215 -225 389 -439 426 -289 50 -571 -142 -629 -428 l-13 -62 -11 60
c-35 182 -171 341 -349 406 -68 24 -212 39 -274 27z"/>
<path d="M9545 12060 c-260 -56 -437 -274 -436 -536 0 -245 155 -448 396 -520
92 -27 231 -24 317 8 97 36 173 85 231 148 57 62 123 190 133 258 l7 45 21
-74 c30 -103 71 -174 141 -244 216 -217 554 -217 771 -1 176 175 213 418 97
638 -51 98 -134 178 -236 228 -99 49 -176 64 -282 57 -241 -17 -444 -189 -495
-420 l-13 -58 -18 71 c-59 233 -262 395 -504 405 -49 2 -108 0 -130 -5z"/>
<path d="M2198 11824 c-176 -42 -334 -190 -389 -363 -27 -87 -30 -223 -5 -306
56 -187 195 -327 380 -380 36 -11 94 -17 146 -17 152 0 279 52 384 158 108
107 158 230 157 387 0 157 -56 284 -172 392 -66 60 -174 117 -257 134 -70 15
-173 13 -244 -5z"/>
<path d="M7073 11826 c-189 -46 -342 -196 -398 -390 -23 -80 -17 -238 13 -319
57 -158 192 -288 351 -338 90 -28 231 -28 321 0 179 56 319 200 371 381 20 73
16 214 -9 295 -55 180 -211 327 -394 370 -76 18 -184 18 -255 1z"/>
<path d="M11943 11826 c-241 -59 -413 -275 -415 -522 -1 -155 50 -281 158
-388 105 -106 232 -158 384 -158 249 0 455 156 526 397 24 84 22 220 -5 306
-55 175 -214 322 -393 364 -76 18 -184 18 -255 1z"/>
<path d="M3824 11641 c-60 -27 -96 -80 -102 -146 -6 -71 2 -97 40 -141 40 -45
82 -64 145 -64 125 0 213 123 174 243 -35 106 -152 155 -257 108z"/>
<path d="M8700 11644 c-77 -33 -114 -97 -108 -186 7 -98 82 -168 181 -168 62
0 105 19 144 63 36 41 48 87 40 153 -12 114 -147 186 -257 138z"/>
<path d="M3269 11390 c-158 -25 -315 -136 -393 -280 -32 -59 -66 -187 -66
-250 0 -299 253 -551 554 -550 236 1 461 176 521 405 19 74 19 203 0 275 -71
269 -340 443 -616 400z"/>
<path d="M8165 11394 c-186 -26 -344 -140 -423 -304 -144 -301 0 -643 316
-752 95 -32 249 -32 345 1 171 58 306 202 354 376 19 70 18 212 -2 282 -64
223 -258 381 -485 396 -41 3 -88 3 -105 1z"/>
<path d="M12720 11240 c-86 -85 -132 -169 -155 -277 -18 -86 -18 -130 0 -218
23 -111 68 -189 154 -275 l76 -75 3 233 c1 128 1 335 0 460 l-3 227 -75 -75z"/>
<path d="M4080 11154 c-69 -30 -110 -93 -110 -168 0 -110 75 -186 185 -186 79
0 149 45 174 113 25 66 4 164 -46 209 -50 46 -139 60 -203 32z"/>
<path d="M8942 11149 c-164 -81 -118 -332 63 -347 71 -6 97 2 140 40 59 51 79
109 63 180 -26 120 -156 181 -266 127z"/>
<path d="M1514 11021 c-110 -50 -140 -200 -58 -291 113 -125 324 -45 324 123
0 50 -24 110 -57 139 -53 48 -140 60 -209 29z"/>
<path d="M6401 11029 c-138 -55 -163 -235 -45 -325 42 -32 121 -43 177 -25 46
16 104 80 113 126 18 96 -21 180 -100 216 -44 20 -106 24 -145 8z"/>
<path d="M11260 11024 c-69 -30 -110 -93 -110 -168 0 -110 75 -186 185 -186
60 0 103 19 142 63 36 41 48 87 40 153 -12 114 -147 186 -257 138z"/>
<path d="M4455 10924 c-72 -37 -106 -91 -107 -168 -1 -108 77 -186 188 -186
149 0 233 164 150 291 -47 70 -159 101 -231 63z"/>
<path d="M9324 10921 c-64 -29 -97 -81 -102 -155 -4 -73 15 -115 71 -160 31
-25 49 -31 100 -34 73 -4 115 15 161 72 55 67 44 189 -21 248 -53 48 -140 60
-209 29z"/>
<path d="M1129 10784 c-57 -17 -115 -77 -125 -129 -25 -137 64 -243 198 -233
139 10 217 158 146 279 -45 76 -133 110 -219 83z"/>
<path d="M10876 10785 c-58 -21 -88 -46 -113 -95 -30 -57 -29 -104 2 -166 32
-63 80 -96 150 -102 230 -19 283 306 60 367 -49 13 -51 13 -99 -4z"/>
<path d="M22 10780 c-22 -9 -22 -13 -22 -174 l0 -164 36 -12 c153 -51 292 108
225 256 -29 64 -81 98 -155 101 -33 2 -71 -2 -84 -7z"/>
<path d="M4885 10773 c-74 -38 -112 -108 -103 -188 18 -158 221 -220 327 -99
106 120 20 305 -140 304 -30 -1 -67 -8 -84 -17z"/>
<path d="M5963 10765 c-83 -50 -114 -152 -71 -234 61 -117 197 -147 288 -65
133 120 56 324 -122 324 -39 0 -64 -7 -95 -25z"/>
<path d="M9743 10765 c-83 -50 -114 -152 -71 -234 61 -117 197 -147 288 -65
133 121 56 324 -122 324 -39 0 -64 -7 -95 -25z"/>
<path d="M2018 10680 c-47 -8 -80 -30 -115 -77 -24 -31 -28 -45 -28 -103 0
-54 5 -73 24 -102 95 -139 303 -102 339 60 30 131 -85 247 -220 222z"/>
<path d="M2545 10685 c-5 -2 -22 -6 -37 -9 -34 -8 -94 -59 -114 -97 -20 -40
-18 -122 6 -168 68 -133 264 -132 329 1 58 120 -10 252 -139 270 -19 3 -39 4
-45 3z"/>
<path d="M6886 10678 c-114 -25 -175 -148 -127 -253 22 -48 54 -79 103 -100
101 -41 219 19 248 126 36 134 -86 258 -224 227z"/>
<path d="M7415 10683 c-11 -2 -30 -6 -42 -9 -33 -6 -94 -63 -109 -101 -61
-145 81 -302 229 -254 114 38 165 178 100 278 -38 59 -118 98 -178 86z"/>
<path d="M11747 10675 c-154 -40 -185 -245 -50 -333 90 -60 220 -25 270 71 41
81 6 202 -72 243 -55 29 -91 34 -148 19z"/>
<path d="M12285 10683 c-11 -2 -30 -6 -42 -9 -33 -6 -94 -63 -109 -101 -35
-82 -5 -182 68 -230 34 -23 53 -28 103 -28 50 0 69 5 103 28 95 62 111 199 34
280 -43 46 -106 70 -157 60z"/>
<path d="M4093 10545 c-90 -25 -174 -74 -244 -144 -214 -214 -214 -550 0 -761
110 -109 233 -160 386 -160 179 0 339 81 438 222 96 138 127 285 92 437 -47
199 -197 354 -395 406 -69 18 -209 18 -277 0z"/>
<path d="M8955 10541 c-92 -26 -164 -69 -237 -142 -211 -212 -211 -547 1 -758
109 -109 234 -161 386 -161 301 0 545 242 545 540 0 243 -171 463 -406 524
-80 21 -212 19 -289 -3z"/>
<path d="M1550 10493 c-57 -21 -86 -42 -111 -82 -73 -114 -9 -257 128 -286 73
-15 179 48 204 122 16 50 7 126 -22 168 -40 59 -142 99 -199 78z"/>
<path d="M6385 10476 c-62 -32 -96 -81 -103 -145 -6 -66 12 -113 58 -155 124
-112 310 -31 310 135 0 140 -141 228 -265 165z"/>
<path d="M11249 10472 c-71 -37 -102 -93 -97 -174 7 -102 82 -172 183 -172
195 0 257 261 83 348 -66 33 -103 33 -169 -2z"/>
<path d="M2845 10291 c-83 -37 -128 -127 -106 -210 29 -111 130 -168 239 -136
89 27 142 114 127 210 -5 39 -16 57 -54 95 -63 63 -129 76 -206 41z"/>
<path d="M7714 10291 c-133 -62 -143 -258 -17 -328 54 -29 95 -34 150 -18 152
45 179 244 46 335 -47 32 -125 37 -179 11z"/>
<path d="M12590 10295 c-74 -34 -113 -91 -113 -170 -1 -69 31 -127 85 -158 58
-33 98 -39 153 -22 83 24 85 30 85 179 l0 131 -34 23 c-45 30 -128 38 -176 17z"/>
<path d="M2052 10226 c-171 -42 -316 -173 -381 -346 -35 -93 -36 -255 -3 -353
58 -166 192 -295 361 -347 80 -25 224 -27 302 -4 188 56 336 206 383 390 32
124 14 273 -46 388 -41 77 -145 181 -224 223 -111 59 -268 79 -392 49z"/>
<path d="M6925 10225 c-228 -62 -386 -245 -410 -476 -21 -207 104 -438 286
-528 91 -44 160 -61 259 -61 159 0 267 45 381 159 114 114 159 222 159 382 0
246 -166 461 -407 523 -73 19 -200 20 -268 1z"/>
<path d="M11793 10225 c-205 -55 -356 -212 -399 -414 -38 -181 15 -360 146
-491 110 -110 230 -160 385 -160 155 0 277 50 386 159 170 170 209 422 96 635
-65 124 -205 235 -343 270 -75 19 -201 20 -271 1z"/>
<path d="M97 10200 c-16 -5 -44 -20 -63 -35 l-34 -26 0 -119 0 -119 33 -25
c76 -58 173 -56 244 7 104 92 78 248 -52 308 -43 20 -83 23 -128 9z"/>
<path d="M1164 10185 c-72 -36 -99 -81 -99 -165 0 -54 5 -73 25 -103 30 -44
109 -87 159 -87 97 1 191 94 191 190 0 67 -50 142 -115 171 -55 25 -102 24
-161 -6z"/>
<path d="M4955 10191 c-98 -45 -139 -151 -96 -246 48 -107 175 -144 272 -80
100 65 115 202 30 286 -57 58 -135 73 -206 40z"/>
<path d="M6055 10195 c-80 -28 -134 -120 -119 -203 25 -144 194 -208 305 -115
109 92 80 262 -53 318 -46 18 -81 19 -133 0z"/>
<path d="M9835 10195 c-142 -50 -164 -246 -37 -331 119 -81 292 11 292 156 0
78 -62 159 -138 180 -48 13 -68 12 -117 -5z"/>
<path d="M10915 10191 c-154 -71 -150 -280 7 -346 21 -8 52 -15 70 -15 77 1
170 75 184 145 17 92 -20 170 -100 210 -59 30 -106 31 -161 6z"/>
<path d="M3335 10101 c-48 -22 -69 -44 -90 -94 -27 -64 -13 -150 33 -200 45
-50 143 -71 209 -46 35 13 80 55 99 92 18 34 20 111 4 152 -36 95 -158 141
-255 96z"/>
<path d="M8215 10107 c-16 -8 -45 -29 -62 -47 -113 -116 -29 -310 133 -310
107 0 188 80 188 185 0 60 -23 105 -77 148 -30 25 -49 31 -95 34 -34 2 -69 -2
-87 -10z"/>
<path d="M1340 9757 c-86 -28 -144 -137 -120 -226 33 -123 182 -178 290 -107
93 61 108 198 32 280 -54 57 -127 77 -202 53z"/>
<path d="M6218 9754 c-55 -17 -114 -79 -124 -131 -28 -151 110 -272 251 -219
75 29 117 93 116 179 0 123 -121 209 -243 171z"/>
<path d="M11086 9756 c-109 -41 -156 -158 -105 -264 70 -143 286 -129 345 23
54 144 -95 294 -240 241z"/>
<path d="M3035 9681 c-48 -22 -79 -54 -100 -103 -28 -70 -12 -145 45 -199 148
-141 386 22 301 206 -45 98 -152 140 -246 96z"/>
<path d="M7910 9684 c-105 -46 -145 -164 -89 -265 59 -106 214 -125 296 -37
68 72 70 182 5 252 -56 60 -142 80 -212 50z"/>
<path d="M12749 9667 c-101 -68 -115 -201 -30 -286 21 -21 48 -40 59 -43 22
-6 22 -6 22 173 0 98 -4 179 -9 179 -4 0 -23 -10 -42 -23z"/>
<path d="M3626 9565 c-136 -48 -170 -218 -63 -312 52 -45 106 -60 164 -44 62
16 99 44 124 94 54 105 4 227 -110 265 -43 15 -67 14 -115 -3z"/>
<path d="M8497 9565 c-50 -17 -85 -50 -108 -100 -61 -131 53 -282 196 -261
153 23 215 208 106 317 -34 35 -92 59 -136 59 -11 -1 -37 -7 -58 -15z"/>
<path d="M4075 9406 c-139 -60 -139 -274 -1 -337 136 -62 275 34 264 183 -5
66 -39 117 -98 149 -41 22 -121 24 -165 5z"/>
<path d="M8945 9403 c-46 -24 -66 -45 -86 -88 -86 -186 141 -349 296 -213 55
47 75 151 41 215 -19 37 -64 79 -99 92 -41 16 -117 13 -152 -6z"/>
<path d="M1300 9274 c-71 -31 -110 -92 -110 -175 0 -144 155 -231 281 -157 76
45 109 128 85 212 -32 109 -152 165 -256 120z"/>
<path d="M6175 9271 c-98 -45 -139 -151 -96 -247 59 -129 248 -144 326 -26 64
98 28 224 -80 273 -51 24 -99 24 -150 0z"/>
<path d="M11065 9282 c-132 -46 -176 -198 -88 -303 37 -43 80 -62 143 -62 63
0 106 19 143 62 100 119 26 299 -126 307 -29 2 -61 0 -72 -4z"/>
<path d="M3145 9230 c-144 -33 -200 -191 -107 -302 32 -38 95 -68 142 -68 76
0 155 60 180 135 42 127 -84 265 -215 235z"/>
<path d="M4597 9225 c-178 -45 -185 -298 -10 -356 125 -41 252 62 241 196 -10
117 -115 189 -231 160z"/>
<path d="M8014 9230 c-88 -20 -149 -97 -148 -185 3 -185 238 -252 344 -99 45
67 36 164 -22 229 -39 45 -115 69 -174 55z"/>
<path d="M9467 9225 c-115 -30 -169 -152 -116 -263 58 -119 232 -135 314 -28
50 65 47 171 -7 232 -54 61 -113 80 -191 59z"/>
<path d="M12771 9161 c-11 -15 -26 -49 -32 -74 -15 -55 -2 -111 36 -154 l24
-28 1 143 c0 78 -2 142 -4 142 -3 0 -14 -13 -25 -29z"/>
<path d="M2455 8841 c-110 -49 -145 -182 -75 -279 67 -92 210 -103 287 -20 91
97 56 250 -69 303 -49 20 -94 19 -143 -4z"/>
<path d="M7324 8841 c-180 -84 -118 -354 82 -354 62 0 103 21 148 76 28 35 31
46 31 106 0 55 -5 74 -24 102 -53 78 -156 109 -237 70z"/>
<path d="M12200 8844 c-114 -49 -151 -185 -78 -287 44 -62 165 -90 233 -54
111 57 139 203 57 291 -56 60 -142 80 -212 50z"/>
<path d="M4585 8721 c-45 -11 -69 -26 -103 -65 -106 -121 -2 -319 158 -304
155 15 227 200 122 311 -47 50 -116 72 -177 58z"/>
<path d="M9447 8715 c-154 -40 -184 -243 -51 -335 99 -67 245 -13 279 104 24
85 -9 173 -82 213 -52 28 -90 33 -146 18z"/>
<path d="M1490 8659 c-33 -13 -78 -57 -97 -94 -22 -41 -20 -126 3 -166 53 -90
158 -123 249 -79 136 66 139 262 4 330 -41 22 -117 26 -159 9z"/>
<path d="M2945 8653 c-46 -24 -66 -45 -86 -88 -48 -103 2 -221 108 -256 120
-39 246 50 246 175 0 78 -48 149 -116 175 -41 16 -117 13 -152 -6z"/>
<path d="M6350 8652 c-19 -10 -48 -36 -65 -56 -27 -34 -30 -45 -30 -110 0 -64
3 -77 28 -109 76 -100 227 -101 303 -2 22 30 29 50 32 99 4 72 -15 114 -72
160 -48 39 -142 48 -196 18z"/>
<path d="M7799 8642 c-90 -58 -114 -172 -56 -261 46 -69 151 -100 230 -67 71
29 126 129 112 199 -20 94 -84 149 -179 155 -54 3 -66 0 -107 -26z"/>
<path d="M11225 8656 c-97 -43 -138 -184 -80 -273 78 -118 268 -106 326 21 59
129 -29 267 -168 266 -26 -1 -61 -7 -78 -14z"/>
<path d="M12677 8649 c-20 -11 -49 -38 -64 -59 -78 -120 -5 -274 137 -288 l50
-5 0 187 0 186 -42 0 c-24 -1 -60 -10 -81 -21z"/>
<path d="M908 8490 c-106 -56 -132 -201 -52 -290 113 -125 324 -45 324 123 0
50 -24 110 -56 138 -59 51 -150 63 -216 29z"/>
<path d="M5795 8496 c-74 -34 -122 -118 -111 -195 29 -213 343 -212 372 2 9
60 -29 141 -82 176 -44 30 -133 39 -179 17z"/>
<path d="M10665 8494 c-72 -37 -108 -93 -108 -169 0 -108 79 -185 189 -185
147 0 233 164 151 289 -47 70 -160 102 -232 65z"/>
<path d="M265 8466 c-66 -29 -105 -94 -105 -172 0 -77 42 -139 113 -169 132
-55 265 43 255 187 -5 66 -40 121 -99 150 -40 21 -121 23 -164 4z"/>
<path d="M5127 8459 c-49 -26 -86 -84 -93 -145 -7 -61 23 -123 79 -168 35 -28
46 -31 107 -31 61 0 72 3 107 31 21 16 48 50 61 75 44 83 7 195 -78 239 -51
26 -132 26 -183 -1z"/>
<path d="M9995 8456 c-106 -65 -119 -220 -26 -299 152 -128 373 34 293 215
-30 69 -80 102 -161 106 -56 2 -72 -1 -106 -22z"/>
<path d="M2135 8378 c-114 -41 -162 -168 -102 -271 62 -106 194 -125 287 -41
46 42 64 89 58 155 -7 64 -41 113 -102 144 -53 27 -92 30 -141 13z"/>
<path d="M6985 8366 c-73 -37 -100 -82 -100 -166 0 -54 5 -73 25 -103 104
-152 340 -79 340 105 0 139 -142 227 -265 164z"/>
<path d="M11852 8365 c-68 -35 -102 -89 -102 -165 0 -234 349 -249 368 -15 6
75 -24 136 -85 171 -65 39 -116 41 -181 9z"/>
<path d="M2695 8255 c-5 -2 -22 -6 -37 -9 -63 -14 -128 -103 -128 -176 0 -43
29 -107 61 -137 97 -89 245 -58 300 62 10 22 19 55 19 73 0 63 -45 138 -100
167 -27 13 -98 26 -115 20z"/>
<path d="M7544 8251 c-138 -34 -187 -221 -82 -318 95 -89 244 -58 299 62 32
68 18 147 -34 203 -43 46 -120 68 -183 53z"/>
<path d="M12413 8250 c-131 -31 -183 -197 -96 -301 90 -106 255 -82 314 46 32
68 18 147 -34 203 -43 46 -120 68 -184 52z"/>
<path d="M1485 8188 c-75 -14 -186 -72 -248 -128 -190 -174 -235 -435 -114
-665 68 -128 217 -238 369 -271 264 -56 531 94 624 352 71 193 21 414 -126
561 -132 132 -316 187 -505 151z"/>
<path d="M6348 8184 c-241 -58 -417 -280 -418 -526 0 -179 100 -360 255 -460
170 -111 411 -110 580 0 199 129 296 367 240 587 -74 289 -370 469 -657 399z"/>
<path d="M11235 8190 c-302 -65 -495 -370 -419 -664 36 -141 145 -281 271
-349 64 -34 190 -67 257 -67 245 2 468 174 531 410 19 72 19 201 0 275 -45
169 -175 311 -345 373 -72 26 -224 38 -295 22z"/>
<path d="M4602 8169 c-67 -33 -97 -86 -97 -170 0 -60 3 -71 31 -106 41 -51 87
-73 152 -73 63 0 98 16 140 64 35 40 47 86 39 152 -13 119 -152 189 -265 133z"/>
<path d="M9485 8176 c-66 -29 -115 -102 -115 -171 0 -106 82 -185 191 -185
165 0 247 205 127 317 -52 49 -141 66 -203 39z"/>
<path d="M665 7983 c-46 -24 -66 -45 -86 -88 -48 -103 2 -221 108 -256 120
-39 246 50 246 175 0 78 -48 149 -116 175 -41 16 -117 13 -152 -6z"/>
<path d="M5550 7989 c-33 -13 -78 -57 -97 -94 -22 -41 -20 -126 3 -166 32 -54
87 -91 142 -97 89 -8 160 30 193 102 31 69 19 156 -29 209 -45 50 -147 72
-212 46z"/>
<path d="M10410 7981 c-19 -10 -48 -35 -65 -55 -27 -34 -30 -45 -30 -110 0
-64 3 -77 28 -109 16 -21 46 -46 67 -57 80 -41 181 -17 237 57 25 32 28 45 28
108 0 63 -3 76 -28 108 -55 73 -162 99 -237 58z"/>
<path d="M2357 7855 c-50 -17 -85 -50 -108 -100 -23 -49 -24 -94 -4 -143 33
-77 91 -115 175 -115 84 0 142 38 175 115 41 99 -18 218 -123 248 -48 13 -68
12 -115 -5z"/>
<path d="M7227 7855 c-78 -27 -120 -89 -120 -176 0 -199 272 -256 354 -74 44
97 -1 207 -103 250 -45 18 -81 19 -131 0z"/>
<path d="M12095 7855 c-79 -28 -135 -123 -120 -204 10 -54 32 -89 75 -120 98
-71 232 -36 281 74 44 97 -1 207 -103 250 -46 18 -81 19 -133 0z"/>
<path d="M143 7815 c-83 -50 -114 -152 -71 -234 13 -25 40 -59 61 -75 35 -28
46 -31 106 -31 78 0 120 22 161 84 36 54 35 142 -3 199 -54 82 -169 108 -254
57z"/>
<path d="M5031 7822 c-89 -45 -124 -151 -83 -245 55 -123 234 -142 317 -33 30
39 42 101 31 161 -8 43 -59 103 -103 121 -45 19 -121 17 -162 -4z"/>
<path d="M9905 7823 c-48 -25 -73 -53 -91 -99 -69 -181 148 -332 297 -207 94
79 80 237 -27 299 -49 29 -132 32 -179 7z"/>
<path d="M3115 7743 c-72 -7 -145 -28 -205 -57 -83 -40 -194 -148 -238 -232
-153 -294 -9 -655 306 -765 82 -29 220 -36 302 -15 198 50 358 206 401 391 19
80 22 83 31 30 16 -86 79 -203 148 -272 216 -215 554 -218 769 -5 117 116 167
247 159 416 -7 143 -57 254 -159 354 -177 173 -448 205 -664 77 -121 -71 -220
-209 -249 -345 -12 -59 -14 -62 -21 -35 -34 145 -81 231 -172 314 -109 101
-273 159 -408 144z"/>
<path d="M7955 7739 c-165 -20 -319 -125 -405 -275 -36 -63 -70 -188 -70 -258
1 -297 249 -545 547 -546 254 0 480 182 533 429 l14 65 13 -65 c20 -101 67
-184 147 -265 140 -140 324 -194 515 -149 189 45 358 213 401 400 17 72 14
205 -5 273 -52 179 -198 325 -378 377 -75 22 -219 22 -294 0 -191 -55 -333
-202 -382 -397 l-19 -73 -11 56 c-28 132 -127 276 -242 350 -100 64 -238 93
-364 78z"/>
<path d="M12740 7721 c-224 -71 -371 -255 -387 -486 -13 -191 83 -380 248
-488 55 -36 183 -86 193 -76 4 3 5 245 4 536 l-3 531 -55 -17z"/>
<path d="M635 7513 c-220 -32 -406 -194 -459 -398 -20 -76 -20 -204 -1 -280
86 -328 456 -497 766 -349 85 41 198 149 242 231 33 63 67 190 67 252 -1 284
-228 525 -511 544 -41 3 -87 3 -104 0z"/>
<path d="M5515 7514 c-179 -25 -346 -142 -423 -294 -191 -381 109 -822 534
-786 232 19 438 199 484 423 17 80 8 225 -18 296 -74 204 -261 345 -478 360
-38 3 -82 3 -99 1z"/>
<path d="M10363 7510 c-205 -37 -356 -166 -431 -369 -33 -91 -34 -236 -2 -331
56 -169 181 -294 348 -352 53 -18 89 -23 172 -23 83 0 119 5 172 23 382 132
497 613 213 897 -121 121 -310 183 -472 155z"/>
<path d="M2255 7335 c-5 -2 -22 -6 -37 -9 -63 -14 -128 -103 -128 -176 0 -43
29 -107 61 -137 97 -89 245 -58 300 62 10 22 19 55 19 73 0 63 -45 138 -100
167 -27 13 -98 26 -115 20z"/>
<path d="M7100 7328 c-84 -24 -133 -90 -133 -177 0 -64 18 -107 63 -144 32
-27 87 -47 130 -47 75 1 164 81 176 158 20 136 -106 249 -236 210z"/>
<path d="M11970 7328 c-168 -49 -185 -277 -25 -349 95 -43 201 -2 246 96 32
68 18 147 -34 203 -45 48 -123 69 -187 50z"/>
<path d="M1580 7051 c-134 -43 -237 -120 -312 -235 -99 -153 -109 -368 -23
-536 60 -119 193 -230 321 -270 90 -27 237 -28 325 0 131 40 260 143 322 258
35 65 67 189 67 262 0 77 -33 200 -72 268 -68 120 -201 221 -338 257 -76 20
-221 18 -290 -4z"/>
<path d="M6472 7056 c-123 -30 -248 -118 -318 -223 -202 -305 -56 -715 295
-823 80 -25 224 -27 302 -4 141 42 272 147 337 270 162 310 -7 688 -348 779
-66 18 -196 18 -268 1z"/>
<path d="M11325 7051 c-144 -41 -276 -151 -338 -282 -104 -219 -65 -450 103
-620 109 -110 229 -159 391 -159 164 0 283 52 397 175 99 105 142 216 142 366
0 244 -160 453 -402 523 -74 21 -214 20 -293 -3z"/>
<path d="M2495 6840 c-110 -25 -173 -125 -146 -228 30 -108 148 -169 249 -127
49 21 81 52 103 100 24 51 24 99 0 151 -34 76 -128 123 -206 104z"/>
<path d="M7364 6840 c-176 -41 -200 -280 -36 -352 113 -50 246 25 259 146 15
129 -100 236 -223 206z"/>
<path d="M12233 6840 c-106 -25 -170 -129 -142 -232 23 -87 119 -148 212 -134
53 8 122 63 143 113 42 99 -15 217 -120 248 -27 8 -52 15 -55 14 -3 -1 -20 -4
-38 -9z"/>
<path d="M4788 6706 c-58 -21 -86 -43 -106 -84 -29 -56 -34 -88 -21 -135 22
-85 97 -146 179 -147 84 0 178 82 187 163 16 137 -115 248 -239 203z"/>
<path d="M9668 6710 c-86 -26 -138 -93 -138 -179 0 -101 67 -176 166 -187 41
-5 58 -1 103 23 119 62 138 213 38 300 -52 46 -111 61 -169 43z"/>
<path d="M0 6525 l0 -185 26 10 c147 56 170 259 38 336 -22 13 -46 24 -52 24
-9 0 -12 -51 -12 -185z"/>
<path d="M2847 6606 c-50 -18 -85 -51 -108 -101 -45 -96 1 -207 103 -250 131
-54 277 64 253 206 -19 109 -145 183 -248 145z"/>
<path d="M7727 6610 c-128 -39 -176 -199 -90 -301 90 -106 255 -82 314 46 66
143 -73 300 -224 255z"/>
<path d="M12587 6605 c-50 -17 -85 -50 -108 -100 -45 -96 1 -207 103 -250 66
-27 143 -12 195 37 21 20 23 30 23 139 l0 117 -30 26 c-31 25 -88 46 -125 46
-11 -1 -37 -7 -58 -15z"/>
<path d="M3270 6454 c-71 -31 -110 -92 -110 -174 0 -57 10 -81 49 -123 39 -42
79 -60 137 -59 118 1 197 94 181 213 -16 118 -147 191 -257 143z"/>
<path d="M4352 6449 c-67 -33 -97 -86 -97 -170 0 -60 3 -71 31 -106 44 -54 84
-75 147 -75 63 -1 102 18 145 67 38 43 46 69 40 140 -11 128 -148 202 -266
144z"/>
<path d="M8132 6449 c-67 -33 -97 -86 -97 -170 0 -60 3 -71 31 -106 44 -54 84
-75 147 -75 75 -1 140 40 176 109 28 55 4 170 -46 215 -54 50 -143 61 -211 27z"/>
<path d="M9255 6462 c-183 -60 -174 -318 13 -360 180 -41 305 189 170 315 -47
44 -126 63 -183 45z"/>
<path d="M355 6345 c-39 -18 -56 -33 -85 -75 -36 -51 -35 -141 3 -198 35 -54
90 -82 159 -82 159 0 242 184 138 304 -55 62 -145 84 -215 51z"/>
<path d="M852 6339 c-58 -29 -94 -85 -100 -153 -10 -127 99 -217 233 -192 40
8 99 55 121 98 16 31 21 101 9 139 -32 105 -161 158 -263 108z"/>
<path d="M5230 6344 c-69 -30 -110 -93 -110 -168 0 -110 75 -186 185 -186 79
0 149 45 174 113 25 66 4 164 -46 209 -50 46 -139 60 -203 32z"/>
<path d="M5735 6344 c-74 -41 -108 -93 -108 -170 0 -104 79 -184 180 -184 193
0 264 232 105 340 -44 31 -134 38 -177 14z"/>
<path d="M10092 6339 c-58 -29 -94 -85 -100 -153 -10 -127 99 -217 233 -192
40 8 99 55 121 98 18 35 20 111 4 153 -37 97 -161 142 -258 94z"/>
<path d="M10604 6341 c-108 -50 -140 -198 -61 -288 39 -44 82 -63 144 -63 136
0 221 136 165 263 -40 90 -156 131 -248 88z"/>
<path d="M2472 6220 c-103 -27 -166 -64 -247 -145 -103 -103 -165 -245 -165
-380 0 -134 63 -278 165 -380 174 -174 419 -212 638 -98 128 66 230 191 271
332 21 72 21 220 0 292 -57 194 -217 343 -413 385 -89 18 -161 17 -249 -6z"/>
<path d="M7363 6225 c-189 -41 -346 -187 -404 -375 -25 -82 -27 -221 -3 -300
68 -231 290 -400 524 -400 228 0 440 153 518 374 36 100 36 240 0 342 -32 90
-85 171 -155 233 -71 64 -134 97 -229 121 -88 23 -162 24 -251 5z"/>
<path d="M12212 6220 c-408 -107 -544 -615 -245 -909 135 -132 314 -185 494
-147 103 22 194 72 271 147 l68 66 0 318 0 318 -68 66 c-141 139 -331 190
-520 141z"/>
<path d="M0 5984 l0 -185 23 6 c31 10 84 51 104 81 40 62 29 170 -23 226 -24
26 -79 58 -99 58 -3 0 -5 -84 -5 -186z"/>
<path d="M4770 6159 c-66 -26 -113 -99 -113 -174 0 -151 165 -236 293 -152
113 76 100 262 -23 318 -45 20 -117 24 -157 8z"/>
<path d="M9635 6154 c-72 -37 -105 -91 -105 -171 0 -155 181 -239 305 -141 80
63 85 212 9 279 -56 49 -150 64 -209 33z"/>
<path d="M1275 5985 c-5 -2 -22 -6 -37 -9 -31 -7 -93 -58 -110 -90 -66 -123
27 -276 167 -276 151 0 238 161 157 292 -31 50 -133 98 -177 83z"/>
<path d="M6126 5978 c-123 -26 -184 -175 -115 -281 69 -104 216 -115 298 -21
119 135 -5 339 -183 302z"/>
<path d="M10987 5976 c-155 -41 -184 -244 -49 -337 51 -34 153 -34 203 0 180
123 57 392 -154 337z"/>
<path d="M443 5905 c-205 -45 -375 -216 -418 -420 -18 -88 -18 -132 0 -220 23
-108 68 -190 149 -271 104 -104 245 -164 386 -164 236 0 456 168 524 399 21
72 21 220 0 292 -41 141 -142 264 -271 332 -120 63 -242 80 -370 52z"/>
<path d="M5320 5904 c-180 -38 -328 -166 -398 -341 -23 -61 -26 -81 -26 -188
0 -99 4 -131 22 -180 104 -282 419 -432 695 -332 91 33 144 67 209 132 130
131 185 324 143 503 -23 99 -70 179 -149 258 -81 81 -164 126 -271 149 -85 18
-140 18 -225 -1z"/>
<path d="M10190 5905 c-160 -36 -304 -150 -374 -297 -223 -464 273 -948 735
-716 196 98 309 293 296 513 -8 146 -61 261 -165 362 -126 121 -323 176 -492
138z"/>
<path d="M3320 5862 c-19 -10 -48 -36 -65 -56 -27 -34 -30 -45 -30 -110 0 -64
3 -77 28 -109 77 -102 226 -102 304 -1 21 29 28 49 31 98 4 72 -15 114 -72
160 -48 39 -142 48 -196 18z"/>
<path d="M4414 5861 c-175 -80 -112 -350 83 -351 106 0 186 79 186 185 0 140
-139 225 -269 166z"/>
<path d="M8195 5863 c-46 -24 -66 -45 -86 -88 -31 -67 -19 -155 29 -208 44
-49 143 -71 205 -48 48 19 96 71 111 122 27 89 -18 190 -101 225 -43 18 -121
17 -158 -3z"/>
<path d="M9282 5859 c-65 -32 -97 -87 -97 -164 0 -52 5 -69 29 -103 57 -83
178 -107 261 -51 49 33 89 116 82 169 -18 135 -154 208 -275 149z"/>
<path d="M1738 5786 c-59 -21 -86 -43 -109 -88 -59 -116 11 -255 137 -274 160
-24 277 171 176 295 -54 67 -133 93 -204 67z"/>
<path d="M6618 5790 c-83 -25 -130 -83 -136 -171 -8 -113 69 -194 184 -194 77
0 131 33 163 97 39 82 23 168 -42 225 -52 45 -111 61 -169 43z"/>
<path d="M11488 5790 c-87 -26 -138 -93 -138 -179 0 -99 65 -174 163 -187 38
-6 56 -2 99 19 84 42 121 118 104 212 -8 39 -55 99 -95 119 -36 19 -101 26
-133 16z"/>
<path d="M4580 5424 c-74 -32 -111 -88 -112 -168 -2 -199 274 -260 354 -78 68
154 -88 313 -242 246z"/>
<path d="M9450 5424 c-69 -30 -110 -93 -110 -168 0 -110 75 -186 185 -186 79
0 149 45 174 113 25 66 4 164 -46 209 -50 46 -139 60 -203 32z"/>
<path d="M1400 5351 c-135 -72 -132 -270 4 -332 120 -54 253 20 264 146 2 30
2 65 -2 79 -9 36 -65 96 -103 112 -46 20 -122 17 -163 -5z"/>
<path d="M6275 5353 c-48 -25 -73 -53 -91 -99 -35 -91 6 -193 93 -235 123 -60
266 29 266 165 0 107 -78 186 -183 186 -30 -1 -68 -8 -85 -17z"/>
<path d="M11145 5354 c-73 -37 -112 -109 -103 -189 21 -182 270 -225 355 -61
19 37 20 124 0 161 -20 39 -65 81 -100 94 -41 16 -117 13 -152 -5z"/>
<path d="M1990 5239 c-66 -26 -113 -99 -113 -174 0 -106 80 -185 186 -185 193
1 258 263 86 350 -41 22 -117 26 -159 9z"/>
<path d="M6850 5232 c-19 -10 -48 -36 -65 -56 -27 -34 -30 -45 -30 -110 0 -64
3 -77 28 -109 77 -102 226 -102 304 -1 21 29 28 49 31 98 4 72 -15 114 -72
160 -48 39 -142 48 -196 18z"/>
<path d="M11725 5236 c-97 -43 -138 -184 -80 -273 78 -118 268 -106 326 21 31
69 19 156 -29 209 -47 52 -151 72 -217 43z"/>
<path d="M2455 5081 c-104 -47 -143 -172 -83 -268 79 -129 274 -112 332 29 21
49 20 94 -3 143 -45 98 -151 139 -246 96z"/>
<path d="M7324 5081 c-50 -23 -90 -72 -102 -129 -27 -118 63 -227 185 -225
154 2 240 186 140 300 -61 69 -145 89 -223 54z"/>
<path d="M12200 5084 c-114 -49 -151 -185 -78 -287 45 -63 164 -90 235 -54
100 52 133 190 66 275 -57 72 -148 99 -223 66z"/>
<path d="M4576 4955 c-195 -50 -173 -340 28 -362 112 -13 206 70 206 181 0
130 -107 213 -234 181z"/>
<path d="M9446 4955 c-87 -22 -144 -108 -134 -200 17 -147 194 -215 309 -118
42 36 62 80 62 139 0 126 -112 211 -237 179z"/>
<path d="M1491 4899 c-83 -33 -125 -101 -119 -191 7 -98 82 -168 181 -168 62
0 105 19 144 63 79 90 47 239 -61 288 -44 20 -106 24 -145 8z"/>
<path d="M2964 4903 c-37 -7 -101 -71 -120 -118 -45 -119 44 -245 175 -245 67
0 123 29 157 79 49 74 42 159 -19 228 -49 55 -109 73 -193 56z"/>
<path d="M6355 4896 c-66 -29 -115 -102 -115 -171 0 -106 82 -185 191 -185
165 0 247 205 127 317 -52 49 -141 66 -203 39z"/>
<path d="M7820 4895 c-74 -34 -112 -91 -114 -170 -1 -67 36 -131 94 -164 60
-33 152 -27 205 13 136 104 71 322 -98 333 -33 2 -65 -3 -87 -12z"/>
<path d="M11212 4889 c-121 -60 -136 -232 -27 -315 64 -49 170 -45 231 8 61
54 80 112 60 189 -30 115 -156 171 -264 118z"/>
<path d="M12685 4891 c-51 -23 -91 -70 -105 -122 -30 -111 60 -229 174 -229
l46 0 0 185 0 185 -37 0 c-21 0 -56 -9 -78 -19z"/>
<path d="M825 4519 c-66 -39 -105 -98 -107 -163 -2 -121 90 -207 208 -193 164
18 221 232 89 333 -31 24 -49 29 -104 32 -38 1 -75 -2 -86 -9z"/>
<path d="M5695 4513 c-74 -38 -112 -108 -103 -188 18 -158 221 -220 327 -99
106 120 20 305 -140 304 -30 -1 -67 -8 -84 -17z"/>
<path d="M10549 4501 c-50 -31 -79 -81 -86 -146 -5 -51 28 -118 80 -159 35
-28 46 -31 107 -31 76 0 100 12 154 79 27 33 31 46 31 100 0 51 -5 70 -28 104
-55 84 -171 108 -258 53z"/>
<path d="M2925 4382 c-181 -85 -124 -352 74 -352 190 0 261 232 104 340 -47
32 -125 37 -178 12z"/>
<path d="M7794 4381 c-43 -20 -86 -68 -99 -110 -11 -35 -8 -107 6 -133 17 -33
60 -78 91 -94 32 -17 115 -18 155 -3 63 24 113 99 113 170 0 136 -144 228
-266 170z"/>
<path d="M12670 4384 c-74 -32 -113 -91 -113 -170 0 -106 78 -184 185 -184
l58 0 -2 183 -3 182 -45 2 c-25 2 -61 -4 -80 -13z"/>
<path d="M1325 4331 c-154 -71 -150 -280 7 -346 49 -20 94 -19 143 4 147 66
155 259 14 336 -56 30 -108 32 -164 6z"/>
<path d="M4735 4331 c-133 -60 -151 -236 -34 -320 154 -112 360 52 280 224
-45 98 -151 139 -246 96z"/>
<path d="M6215 4337 c-51 -21 -80 -45 -104 -88 -19 -33 -22 -52 -19 -99 17
-229 347 -234 366 -5 3 42 -1 64 -18 100 -38 78 -149 124 -225 92z"/>
<path d="M9622 4339 c-18 -6 -50 -27 -71 -48 -118 -118 -33 -315 134 -315 155
0 242 186 142 301 -55 63 -127 84 -205 62z"/>
<path d="M11081 4340 c-111 -47 -155 -174 -96 -276 35 -59 116 -99 182 -90
224 30 215 359 -10 373 -29 1 -63 -2 -76 -7z"/>
<path d="M0 4160 c0 -93 3 -170 6 -170 17 0 63 36 83 66 29 42 38 117 21 168
-13 39 -74 106 -97 106 -10 0 -13 -34 -13 -170z"/>
<path d="M4186 4176 c-136 -51 -170 -219 -63 -313 69 -60 154 -67 229 -18 50
33 78 90 78 158 0 127 -126 216 -244 173z"/>
<path d="M9057 4175 c-50 -17 -85 -50 -108 -100 -74 -161 103 -322 263 -239
38 20 78 76 89 124 20 90 -39 191 -127 218 -51 15 -69 15 -117 -3z"/>
<path d="M3512 4139 c-67 -33 -97 -86 -97 -170 0 -60 3 -71 31 -106 39 -50 92
-75 154 -75 59 1 96 19 138 67 38 43 46 69 40 140 -11 128 -148 202 -266 144z"/>
<path d="M8395 4146 c-40 -17 -84 -63 -101 -103 -44 -103 22 -226 134 -251
180 -41 305 189 170 315 -52 49 -141 66 -203 39z"/>
<path d="M480 4042 c-60 -33 -93 -84 -98 -150 -6 -90 32 -154 111 -187 78 -32
172 -7 223 60 22 30 29 50 32 99 4 73 -15 115 -71 160 -49 39 -142 48 -197 18z"/>
<path d="M5365 4046 c-116 -52 -146 -197 -62 -293 108 -122 309 -56 325 107
13 137 -136 243 -263 186z"/>
<path d="M10240 4049 c-32 -13 -78 -56 -96 -91 -17 -32 -18 -115 -3 -155 34
-91 152 -137 246 -98 50 21 72 42 94 90 31 67 19 155 -29 208 -45 50 -147 72
-212 46z"/>
<path d="M1015 3917 c-56 -26 -115 -114 -115 -172 0 -32 25 -90 52 -121 42
-47 77 -64 138 -64 116 0 190 73 190 188 0 59 -24 107 -73 146 -31 25 -48 31
-100 33 -38 2 -74 -2 -92 -10z"/>
<path d="M5882 3909 c-133 -66 -134 -262 -1 -329 125 -64 272 25 272 165 0
142 -142 227 -271 164z"/>
<path d="M10755 3914 c-47 -26 -66 -46 -86 -89 -31 -67 -19 -155 29 -208 54
-60 165 -75 238 -32 47 28 94 107 94 160 0 47 -44 126 -86 155 -47 31 -144 39
-189 14z"/>
<path d="M4785 3870 c-200 -22 -377 -163 -447 -357 -30 -81 -36 -239 -13 -319
70 -242 282 -404 528 -404 329 1 586 298 538 621 -8 50 -25 102 -52 158 -103
210 -318 327 -554 301z"/>
<path d="M9655 3869 c-272 -34 -475 -265 -475 -539 1 -255 188 -483 437 -531
349 -66 673 216 650 566 -21 314 -299 543 -612 504z"/>
<path d="M0 3330 c0 -615 -11 -550 92 -529 152 31 305 151 371 290 105 222 65
454 -107 624 -95 94 -222 155 -323 155 l-33 0 0 -540z"/>
<path d="M3024 3860 c-174 -41 -201 -278 -40 -351 56 -25 103 -24 162 6 63 32
96 80 102 149 10 125 -104 225 -224 196z"/>
<path d="M7894 3861 c-84 -21 -136 -82 -142 -170 -5 -74 21 -130 80 -168 59
-39 147 -40 205 -1 69 45 102 147 72 225 -30 80 -131 134 -215 114z"/>
<path d="M12764 3860 c-121 -28 -181 -158 -125 -269 24 -45 79 -87 129 -97
l32 -6 0 191 c0 105 -1 191 -2 190 -2 -1 -17 -4 -34 -9z"/>
<path d="M3925 3661 c-48 -22 -79 -54 -100 -103 -56 -136 73 -286 215 -249
109 29 168 126 141 229 -31 112 -153 171 -256 123z"/>
<path d="M8795 3661 c-105 -47 -145 -180 -82 -272 29 -43 63 -66 117 -80 146
-38 275 118 211 256 -45 98 -151 139 -246 96z"/>
<path d="M715 3526 c-42 -18 -92 -78 -105 -126 -40 -150 122 -279 265 -210
136 66 139 262 4 330 -44 23 -119 26 -164 6z"/>
<path d="M5585 3523 c-48 -25 -73 -53 -91 -99 -35 -91 5 -192 91 -234 125 -60
268 27 268 164 0 78 -48 149 -116 175 -41 16 -117 13 -152 -6z"/>
<path d="M10438 3511 c-61 -39 -93 -103 -85 -171 23 -194 278 -233 358 -55 25
55 24 92 -7 153 -50 101 -169 134 -266 73z"/>
<path d="M3420 3505 c-74 -34 -112 -91 -114 -170 -1 -125 113 -212 236 -180
155 40 186 242 51 335 -44 30 -124 37 -173 15z"/>
<path d="M8290 3504 c-69 -30 -110 -93 -110 -168 0 -111 78 -189 186 -188 118
1 197 94 181 213 -16 118 -147 191 -257 143z"/>
<path d="M1385 3401 c-238 -68 -405 -287 -405 -531 0 -64 34 -191 67 -253 62
-116 199 -223 337 -264 83 -25 236 -20 318 10 96 35 172 84 231 147 57 62 121
188 135 265 l8 50 13 -56 c40 -186 192 -354 370 -410 79 -24 211 -29 291 -9
81 19 179 72 243 129 226 208 234 563 16 780 -171 171 -447 209 -658 89 -123
-70 -228 -213 -261 -357 l-13 -54 -18 72 c-26 101 -63 165 -144 247 -110 112
-237 165 -391 163 -44 0 -106 -8 -139 -18z"/>
<path d="M6270 3404 c-197 -52 -361 -220 -400 -411 -27 -127 3 -299 69 -402
157 -244 459 -323 725 -189 124 63 240 213 268 349 7 33 15 59 19 59 3 0 9
-21 13 -46 15 -114 118 -264 233 -340 174 -115 417 -117 593 -4 67 43 154 139
190 209 150 297 3 657 -310 762 -302 100 -636 -83 -702 -386 -16 -69 -24 -74
-32 -19 -3 26 -24 84 -45 128 -110 228 -380 354 -621 290z"/>
<path d="M11136 3405 c-188 -52 -343 -206 -391 -390 -19 -76 -19 -204 1 -280
45 -176 196 -327 379 -381 84 -24 229 -22 316 5 173 55 341 237 365 397 3 24
10 44 14 44 4 0 11 -20 14 -44 17 -109 126 -266 236 -336 170 -109 412 -111
580 -5 24 15 68 50 97 78 l53 50 0 329 c0 380 6 354 -103 434 -143 106 -302
137 -471 94 -100 -25 -175 -69 -251 -144 -66 -67 -129 -180 -141 -254 -7 -47
-24 -67 -24 -29 0 34 -34 128 -67 184 -37 64 -127 153 -194 191 -115 65 -292
90 -413 57z"/>
<path d="M3823 3176 c-141 -36 -286 -148 -351 -272 -107 -205 -76 -449 80
-619 237 -260 654 -230 854 61 196 285 64 690 -265 812 -81 30 -236 39 -318
18z"/>
<path d="M8690 3174 c-407 -107 -546 -610 -251 -905 108 -108 232 -160 386
-160 154 0 278 52 385 160 168 170 207 401 103 620 -66 139 -219 259 -371 290
-72 15 -185 13 -252 -5z"/>
<path d="M575 2996 c-56 -24 -115 -112 -115 -171 0 -60 60 -148 117 -171 73
-31 176 -7 221 51 73 93 43 234 -60 284 -50 24 -118 27 -163 7z"/>
<path d="M5442 2989 c-133 -67 -134 -262 -1 -329 69 -36 157 -24 212 28 43 40
60 80 59 139 0 63 -21 103 -75 146 -51 42 -132 48 -195 16z"/>
<path d="M10325 2996 c-143 -63 -151 -268 -13 -335 147 -71 309 55 268 208
-13 50 -63 109 -107 127 -41 17 -109 17 -148 0z"/>
<path d="M27 2743 l-27 -4 0 -533 0 -533 31 -7 c85 -17 222 5 310 49 132 66
236 182 281 313 33 96 32 270 -2 357 -83 214 -267 349 -490 360 -41 2 -87 1
-103 -2z"/>
<path d="M4875 2738 c-88 -16 -210 -83 -278 -151 -106 -106 -157 -231 -157
-382 0 -153 51 -276 160 -385 100 -100 243 -159 386 -160 67 0 192 33 257 67
77 41 187 155 225 233 34 69 62 179 62 245 0 135 -62 277 -165 380 -132 132
-309 187 -490 153z"/>
<path d="M9740 2734 c-182 -39 -340 -176 -401 -349 -26 -76 -35 -205 -20 -287
51 -265 312 -459 583 -434 230 21 430 195 483 418 69 292 -124 590 -420 653
-85 18 -140 18 -225 -1z"/>
<path d="M825 2502 c-73 -35 -107 -90 -106 -174 1 -189 265 -247 351 -78 41
80 13 188 -62 237 -52 35 -128 41 -183 15z"/>
<path d="M5705 2507 c-16 -8 -45 -29 -62 -47 -113 -116 -29 -310 135 -310 76
0 131 34 166 103 24 46 27 63 22 99 -14 94 -83 160 -174 165 -34 2 -69 -2 -87
-10z"/>
<path d="M10575 2505 c-75 -41 -123 -122 -112 -191 10 -60 52 -120 100 -143
122 -59 260 13 274 144 7 59 -31 140 -83 174 -46 32 -135 39 -179 16z"/>
<path d="M3132 2369 c-65 -32 -97 -87 -97 -164 0 -50 5 -69 28 -103 48 -73
148 -103 230 -68 71 29 124 125 111 197 -25 131 -154 196 -272 138z"/>
<path d="M8015 2376 c-44 -20 -75 -53 -97 -104 -53 -120 39 -252 177 -252 93
0 168 68 181 163 9 60 -29 141 -82 176 -44 30 -133 39 -179 17z"/>
<path d="M12781 2269 c-15 -43 -13 -97 4 -134 12 -28 13 -23 14 68 1 53 -1 97
-3 97 -2 0 -9 -14 -15 -31z"/>
<path d="M1205 2276 c-61 -28 -99 -82 -111 -155 -9 -58 30 -136 88 -173 81
-53 188 -33 252 46 25 30 31 48 34 99 4 73 -15 115 -72 161 -30 25 -47 31 -99
33 -38 2 -73 -2 -92 -11z"/>
<path d="M6075 2272 c-48 -23 -69 -45 -90 -95 -27 -64 -13 -150 33 -200 45
-50 143 -71 209 -46 35 13 80 55 100 92 20 40 19 130 -4 169 -10 17 -35 45
-56 61 -48 40 -131 48 -192 19z"/>
<path d="M10945 2273 c-44 -23 -65 -44 -86 -85 -40 -78 -15 -180 57 -235 30
-22 49 -28 103 -31 58 -3 71 0 108 24 43 29 76 78 88 131 14 70 -41 170 -112
199 -43 18 -121 17 -158 -3z"/>
<path d="M2779 2140 c-89 -15 -152 -92 -152 -184 0 -185 237 -254 343 -100 49
72 33 183 -36 244 -19 16 -38 30 -42 30 -4 0 -23 4 -42 8 -19 5 -51 5 -71 2z"/>
<path d="M6559 2140 c-89 -15 -154 -94 -153 -185 4 -232 349 -247 372 -16 11
122 -97 222 -219 201z"/>
<path d="M7665 2143 c-53 -9 -67 -16 -101 -45 -45 -40 -64 -82 -64 -143 0
-112 94 -195 206 -182 171 19 223 249 78 344 -27 17 -88 31 -119 26z"/>
<path d="M12535 2143 c-53 -9 -67 -16 -100 -45 -20 -17 -43 -44 -51 -60 -17
-33 -20 -111 -6 -149 42 -108 182 -151 281 -86 107 71 105 241 -2 312 -26 17
-94 32 -122 28z"/>
<path d="M1627 2119 c-72 -38 -113 -136 -87 -213 36 -109 154 -163 255 -117
108 49 144 175 80 273 -49 74 -165 101 -248 57z"/>
<path d="M11368 2120 c-45 -24 -74 -63 -89 -121 -42 -161 160 -295 289 -192
45 36 82 105 82 153 -1 51 -32 113 -75 146 -50 38 -150 45 -207 14z"/>
<path d="M3630 2028 c-168 -48 -185 -277 -25 -349 95 -43 201 -2 246 96 47
102 -6 218 -115 250 -56 17 -58 17 -106 3z"/>
<path d="M4165 2035 c-5 -2 -22 -6 -37 -9 -73 -16 -135 -116 -125 -202 9 -81
102 -164 184 -164 41 0 100 24 131 53 87 81 69 238 -33 294 -39 21 -100 36
-120 28z"/>
<path d="M8508 2030 c-102 -31 -158 -124 -136 -222 18 -84 96 -147 179 -148
50 0 129 43 159 87 21 30 25 49 25 104 0 60 -3 71 -31 106 -17 21 -44 45 -60
55 -37 20 -101 29 -136 18z"/>
<path d="M9010 2029 c-79 -24 -140 -101 -140 -179 0 -43 29 -107 61 -137 97
-89 245 -58 300 62 21 46 23 75 9 127 -26 94 -136 154 -230 127z"/>
<path d="M902 1908 c-123 -17 -226 -73 -318 -169 -100 -106 -144 -218 -144
-363 0 -157 43 -266 146 -376 107 -113 241 -170 399 -170 154 0 276 51 386
161 103 102 159 236 159 379 0 245 -173 468 -408 524 -83 21 -149 25 -220 14z"/>
<path d="M10655 1909 c-210 -31 -378 -169 -447 -366 -33 -98 -32 -260 3 -353
119 -315 470 -451 771 -299 71 36 164 120 209 190 106 166 107 411 0 577 -89
139 -229 228 -394 251 -43 6 -79 10 -80 10 -1 -1 -29 -5 -62 -10z"/>
<path d="M5711 1894 c-128 -34 -264 -140 -329 -255 -39 -69 -72 -192 -72 -268
1 -137 65 -286 166 -386 167 -165 427 -203 639 -92 77 40 182 145 222 223 163
310 -5 691 -344 779 -72 19 -211 18 -282 -1z"/>
<path d="M3141 1828 c-94 -49 -132 -140 -97 -233 49 -127 210 -161 306 -65 67
67 73 169 15 245 -53 70 -149 93 -224 53z"/>
<path d="M8015 1831 c-95 -44 -138 -147 -99 -239 52 -125 220 -158 311 -60 91
97 56 250 -69 303 -49 20 -94 19 -143 -4z"/>
<path d="M12781 1719 c-15 -42 -13 -87 4 -124 13 -28 13 -24 14 63 1 50 -1 92
-3 92 -2 0 -9 -14 -15 -31z"/>
<path d="M4481 1650 c-75 -32 -121 -98 -121 -174 0 -56 14 -93 48 -129 40 -42
78 -58 137 -58 29 0 66 6 82 14 169 89 120 342 -70 354 -29 1 -63 -2 -76 -7z"/>
<path d="M9332 1639 c-114 -57 -136 -217 -40 -306 48 -45 148 -59 206 -29 39
20 90 80 98 114 3 15 7 32 9 38 2 6 -1 31 -6 55 -27 121 -156 182 -267 128z"/>
<path d="M3643 1566 c-166 -54 -302 -190 -354 -355 -29 -91 -29 -231 0 -322
50 -159 185 -297 341 -351 53 -19 87 -23 180 -23 93 0 127 4 180 23 113 39
211 118 282 226 109 168 109 405 0 572 -75 114 -161 182 -286 226 -108 37
-236 39 -343 4z"/>
<path d="M8543 1575 c-90 -25 -174 -74 -244 -144 -107 -107 -159 -231 -159
-381 0 -150 52 -274 159 -381 107 -107 233 -159 386 -159 147 0 276 53 381
156 80 79 139 195 156 307 40 267 -136 531 -402 602 -69 18 -208 18 -277 0z"/>
<path d="M1715 1545 c-109 -39 -155 -173 -93 -273 62 -101 214 -117 295 -30
91 97 56 250 -69 303 -46 18 -81 19 -133 0z"/>
<path d="M2818 1550 c-148 -45 -175 -262 -41 -337 82 -45 156 -38 223 23 46
42 64 89 58 155 -11 113 -130 192 -240 159z"/>
<path d="M6592 1549 c-18 -6 -50 -27 -71 -48 -118 -118 -33 -315 134 -315 155
0 242 186 142 301 -55 63 -127 84 -205 62z"/>
<path d="M7696 1553 c-42 -12 -96 -57 -116 -97 -38 -80 -22 -166 43 -223 123
-108 307 -23 307 142 0 60 -35 124 -84 155 -35 21 -114 33 -150 23z"/>
<path d="M11455 1545 c-51 -18 -100 -73 -114 -130 -47 -188 198 -313 322 -166
81 97 52 230 -63 289 -50 25 -88 27 -145 7z"/>
<path d="M12559 1551 c-150 -49 -177 -263 -42 -338 80 -44 154 -38 220 20 122
107 56 308 -105 322 -26 3 -59 1 -73 -4z"/>
<path d="M78 1450 c-66 -36 -78 -60 -78 -168 l0 -95 40 -38 c88 -84 231 -59
292 51 29 52 21 146 -15 194 -56 72 -161 97 -239 56z"/>
<path d="M4965 1456 c-69 -30 -124 -130 -110 -199 27 -128 155 -193 270 -137
68 33 100 86 100 165 0 52 -5 69 -29 103 -49 72 -153 102 -231 68z"/>
<path d="M9835 1454 c-72 -37 -106 -91 -107 -168 -1 -108 77 -186 188 -186
149 0 233 164 150 291 -47 70 -159 101 -231 63z"/>
<path d="M3005 1115 c-5 -2 -22 -6 -37 -9 -39 -9 -88 -54 -109 -101 -44 -97 1
-207 103 -250 131 -54 277 64 253 206 -9 50 -54 111 -96 131 -36 17 -97 30
-114 23z"/>
<path d="M7850 1108 c-168 -49 -185 -277 -25 -349 95 -43 201 -2 246 96 32 68
18 147 -34 203 -45 48 -123 69 -187 50z"/>
<path d="M12720 1108 c-111 -32 -168 -151 -121 -253 31 -68 102 -115 171 -115
l30 0 -2 188 c-3 210 0 203 -78 180z"/>
<path d="M4671 1039 c-77 -31 -121 -96 -121 -179 0 -57 10 -81 49 -123 38 -42
79 -60 136 -60 151 0 236 165 152 293 -43 64 -145 97 -216 69z"/>
<path d="M9522 1029 c-105 -53 -135 -199 -60 -285 42 -48 80 -66 142 -66 74
-1 139 40 175 109 18 35 13 119 -9 163 -44 87 -161 124 -248 79z"/>
<path d="M0 860 c0 -112 1 -122 15 -103 8 11 20 40 26 64 13 48 2 108 -25 144
-14 18 -15 8 -16 -105z"/>
<path d="M379 921 c-101 -33 -157 -156 -115 -254 29 -71 129 -126 199 -112 53
12 102 45 130 88 53 82 26 205 -57 257 -39 23 -117 34 -157 21z"/>
<path d="M5235 911 c-105 -47 -143 -172 -83 -269 62 -101 214 -117 295 -30 91
97 56 250 -69 303 -49 20 -94 19 -143 -4z"/>
<path d="M10127 920 c-153 -46 -175 -269 -34 -342 144 -74 303 46 273 207 -18
95 -140 164 -239 135z"/>
<path d="M830 759 c-33 -13 -78 -57 -96 -92 -34 -64 -14 -168 41 -215 155
-137 381 27 296 214 -29 64 -81 98 -155 101 -33 2 -72 -2 -86 -8z"/>
<path d="M5695 753 c-48 -25 -73 -53 -91 -99 -32 -84 -3 -172 74 -225 29 -19
48 -24 103 -24 60 0 71 3 106 31 54 44 77 88 77 149 0 106 -79 185 -185 185
-30 -1 -67 -8 -84 -17z"/>
<path d="M10558 747 c-76 -46 -112 -130 -89 -209 17 -56 87 -124 136 -134 84
-15 159 15 206 84 36 53 34 143 -4 200 -52 80 -170 108 -249 59z"/>
<path d="M2925 622 c-75 -35 -125 -123 -110 -195 12 -55 51 -111 95 -136 60
-33 152 -27 205 13 136 104 71 321 -98 333 -36 3 -64 -2 -92 -15z"/>
<path d="M7794 621 c-43 -20 -86 -68 -99 -110 -11 -35 -8 -107 6 -133 17 -33
60 -78 91 -94 38 -20 126 -18 167 4 90 45 126 155 81 247 -44 90 -155 129
-246 86z"/>
<path d="M12670 624 c-140 -61 -153 -258 -22 -332 28 -15 56 -22 96 -22 l56 0
-2 183 -3 182 -45 2 c-25 2 -61 -4 -80 -13z"/>
<path d="M1350 581 c-77 -24 -123 -73 -140 -147 -18 -78 29 -171 104 -205 174
-79 339 110 238 273 -36 59 -139 99 -202 79z"/>
<path d="M4785 585 c-5 -2 -22 -6 -37 -9 -34 -8 -94 -59 -114 -97 -21 -41 -18
-122 6 -169 11 -22 39 -52 62 -67 34 -23 53 -28 103 -28 52 0 69 5 103 29 69
48 101 146 71 223 -12 34 -55 80 -89 98 -27 13 -89 25 -105 20z"/>
<path d="M6245 585 c-5 -2 -22 -6 -37 -9 -73 -16 -135 -116 -125 -202 9 -81
102 -164 184 -164 41 0 100 24 131 53 87 81 69 238 -33 293 -39 21 -100 36
-120 29z"/>
<path d="M9655 585 c-5 -2 -22 -6 -37 -9 -37 -8 -98 -63 -114 -103 -34 -79 -4
-180 68 -229 34 -24 51 -29 103 -29 50 0 69 5 103 28 112 73 109 251 -5 313
-37 21 -98 36 -118 29z"/>
<path d="M11093 581 c-44 -11 -77 -34 -110 -78 -24 -31 -28 -45 -28 -103 0
-75 22 -119 81 -160 146 -100 347 64 279 228 -38 88 -129 135 -222 113z"/>
<path d="M0 400 c0 -97 4 -170 9 -170 16 0 71 51 85 79 44 88 13 206 -65 246
l-29 16 0 -171z"/>
<path d="M4074 191 c-57 -26 -96 -80 -102 -141 l-5 -50 187 0 186 0 0 35 c0
39 -27 101 -57 127 -53 48 -140 60 -209 29z"/>
<path d="M8942 189 c-54 -27 -93 -83 -100 -144 l-5 -45 186 0 c102 0 188 4
191 9 10 16 -21 112 -45 137 -60 64 -150 81 -227 43z"/>
<path d="M1318 70 c-33 -10 -88 -48 -88 -61 0 -5 65 -9 153 -9 l152 1 -35 30
c-52 44 -118 58 -182 39z"/>
<path d="M6186 65 c-22 -8 -51 -25 -65 -39 l-26 -26 155 0 155 1 -32 29 c-31
28 -88 50 -128 50 -11 -1 -38 -7 -59 -15z"/>
<path d="M11045 61 c-22 -10 -49 -28 -59 -40 l-19 -21 153 0 153 0 -19 21
c-26 30 -92 59 -134 59 -19 0 -53 -9 -75 -19z"/>
<path d="M3146 18 c-64 -14 -55 -18 40 -18 53 0 83 4 74 9 -26 15 -74 18 -114
9z"/>
<path d="M4612 20 c-60 -14 -46 -20 44 -19 54 0 81 3 69 8 -36 14 -79 18 -113
11z"/>
<path d="M8016 18 c-64 -14 -55 -18 40 -18 53 0 83 4 74 9 -26 15 -74 18 -114
9z"/>
<path d="M9482 20 c-60 -14 -46 -20 44 -19 54 0 81 3 69 8 -36 14 -79 18 -113
11z"/>
</g>
</svg>
